<svg width="28" height="22" viewBox="0 0 28 22" fill="none" xmlns="http://www.w3.org/2000/svg">
<path d="M27.2531 12.0312L22.5695 4.46875C22.4406 4.25391 22.2258 4.125 22.011 4.125C21.7531 4.125 21.5383 4.25391 21.4094 4.46875L16.7258 12.0312C16.5539 12.2461 16.468 12.5469 16.511 12.8477C16.7258 15.6836 19.0891 17.875 22.011 17.875C24.8899 17.875 27.2531 15.6836 27.468 12.8477C27.5109 12.5469 27.425 12.2461 27.2531 12.0312ZM22.011 16.5C20.2063 16.5 18.6594 15.3398 18.1008 13.75H25.8781C25.3195 15.3828 23.7727 16.5 22.011 16.5ZM18.1008 12.375L22.011 6.14453L25.8781 12.375H18.1008ZM23.0422 20.625H14.4485V5.41406C15.6086 5.11328 16.511 4.03906 16.511 2.75H23.0422C23.2141 2.75 23.386 2.62109 23.386 2.40625V1.71875C23.386 1.54688 23.2141 1.375 23.0422 1.375H16.0813C16.0813 1.375 15.9094 0.902344 15.2649 0.472656C14.8352 0.214844 14.3195 0 13.761 0C13.1594 0 12.6438 0.214844 12.2141 0.472656C11.5695 0.902344 11.3977 1.375 11.3977 1.375H4.4797C4.26486 1.375 4.13595 1.54688 4.13595 1.71875V2.40625C4.13595 2.62109 4.26486 2.75 4.4797 2.75H11.011C11.011 4.03906 11.8703 5.11328 13.0735 5.41406V20.625H4.4797C4.26486 20.625 4.13595 20.7969 4.13595 20.9688V21.6562C4.13595 21.8711 4.26486 22 4.4797 22H23.0422C23.2141 22 23.386 21.8711 23.386 21.6562V20.9688C23.386 20.7969 23.2141 20.625 23.0422 20.625ZM12.386 2.75C12.386 2.01953 12.9875 1.375 13.761 1.375C14.4914 1.375 15.1359 2.01953 15.1359 2.75C15.1359 3.52344 14.4914 4.125 13.761 4.125C12.9875 4.125 12.386 3.52344 12.386 2.75ZM10.968 12.8477C11.011 12.5469 10.925 12.2461 10.7531 12.0312L6.06954 4.46875C5.94064 4.25391 5.72579 4.125 5.51095 4.125C5.25314 4.125 5.03829 4.25391 4.90939 4.46875L0.225794 12.0312C0.0539186 12.2461 -0.0320189 12.5469 0.0109499 12.8477C0.225794 15.6836 2.58907 17.875 5.51095 17.875C8.38986 17.875 10.7531 15.6836 10.968 12.8477ZM5.51095 6.14453L9.37814 12.375H1.60079L5.51095 6.14453ZM1.60079 13.75H9.37814C8.81954 15.3828 7.27267 16.5 5.51095 16.5C3.70626 16.5 2.15939 15.3398 1.60079 13.75Z" fill="#2D3131"/>
</svg>
