<svg width="22" height="26" viewBox="0 0 22 26" fill="none" xmlns="http://www.w3.org/2000/svg">
<path fill-rule="evenodd" clip-rule="evenodd" d="M1.88783 8.19694C1.95934 7.12448 2.85009 6.29168 3.92522 6.29168H18.0746C19.1497 6.29168 20.0405 7.12449 20.112 8.19697L21.0406 22.1199C21.0406 22.1199 21.0406 22.1199 21.0406 22.1199C21.1641 23.9715 19.6947 25.5417 17.8389 25.5417H4.16089C2.3051 25.5417 0.835627 23.9715 0.959161 22.1199M0.959161 22.1199L1.88783 8.19694C1.88783 8.19693 1.88783 8.19695 1.88783 8.19694M18.0746 8.04168H3.92522C3.7707 8.04168 3.64412 8.16086 3.63395 8.31338L2.70528 22.2364C2.64916 23.0775 3.31702 23.7917 4.16089 23.7917H17.8389C18.6828 23.7917 19.3506 23.0775 19.2945 22.2364L18.3658 8.31341C18.3557 8.16089 18.2291 8.04168 18.0746 8.04168Z" fill="#2D3131"/>
<path fill-rule="evenodd" clip-rule="evenodd" d="M10.9999 2.20834C9.54997 2.20834 8.37489 3.38343 8.37489 4.83334C8.37489 5.31659 7.98314 5.70834 7.49989 5.70834C7.01664 5.70834 6.62489 5.31659 6.62489 4.83334C6.62489 2.41693 8.58347 0.458344 10.9999 0.458344C13.4163 0.458344 15.3749 2.41693 15.3749 4.83334C15.3749 5.31659 14.9831 5.70834 14.4999 5.70834C14.0166 5.70834 13.6249 5.31659 13.6249 4.83334C13.6249 3.38343 12.4498 2.20834 10.9999 2.20834Z" fill="#2D3131"/>
<path fill-rule="evenodd" clip-rule="evenodd" d="M7.49989 3.95834C7.98314 3.95834 8.37489 4.35009 8.37489 4.83334V9.50001C8.37489 9.98326 7.98314 10.375 7.49989 10.375C7.01664 10.375 6.62489 9.98326 6.62489 9.50001V4.83334C6.62489 4.35009 7.01664 3.95834 7.49989 3.95834Z" fill="#2D3131"/>
<path fill-rule="evenodd" clip-rule="evenodd" d="M14.4999 3.95834C14.9831 3.95834 15.3749 4.35009 15.3749 4.83334L15.3749 9.50001C15.3749 9.98326 14.9831 10.375 14.4999 10.375C14.0166 10.375 13.6249 9.98326 13.6249 9.50001L13.6249 4.83334C13.6249 4.35009 14.0166 3.95834 14.4999 3.95834Z" fill="#2D3131"/>
<path fill-rule="evenodd" clip-rule="evenodd" d="M5.45822 20C5.45822 19.5168 5.84997 19.125 6.33322 19.125H15.6666C16.1498 19.125 16.5416 19.5168 16.5416 20C16.5416 20.4833 16.1498 20.875 15.6666 20.875H6.33322C5.84997 20.875 5.45822 20.4833 5.45822 20Z" fill="#2D3131"/>
</svg>
