<svg width="24" height="22" viewBox="0 0 24 22" fill="none" xmlns="http://www.w3.org/2000/svg">
<path fill-rule="evenodd" clip-rule="evenodd" d="M0.600098 8.306C0.600098 4.62064 3.4271 0.5 7.8649 0.5C9.8559 0.5 11.3118 1.29285 12.3001 2.17074C13.2883 1.29285 14.7443 0.5 16.7353 0.5C21.1731 0.5 24.0001 4.62064 24.0001 8.306C24.0001 10.2346 23.2443 12.0226 22.1844 13.5841C21.1237 15.1468 19.7246 16.5334 18.3485 17.6794C16.9689 18.8284 15.5872 19.7564 14.5385 20.3975C14.0135 20.7184 13.5681 20.9698 13.2431 21.1431C13.0814 21.2294 12.9451 21.2986 12.8412 21.3483C12.7904 21.3725 12.7393 21.396 12.693 21.4152C12.6709 21.4244 12.6387 21.4373 12.6024 21.4494C12.5845 21.4554 12.5552 21.4648 12.5191 21.4735L12.5187 21.4736C12.4956 21.4792 12.4102 21.5 12.3001 21.5C12.19 21.5 12.1046 21.4792 12.0815 21.4736L12.0811 21.4735C12.045 21.4648 12.0157 21.4554 11.9978 21.4494C11.9615 21.4373 11.9293 21.4244 11.9072 21.4152C11.8609 21.396 11.8098 21.3725 11.759 21.3483C11.6551 21.2986 11.5188 21.2294 11.3571 21.1431C11.0321 20.9698 10.5867 20.7184 10.0617 20.3975C9.01295 19.7564 7.63127 18.8284 6.25168 17.6794C4.87558 16.5334 3.47651 15.1468 2.41577 13.5841C1.35586 12.0226 0.600098 10.2346 0.600098 8.306ZM7.8649 2.3C4.6827 2.3 2.4001 5.33136 2.4001 8.306C2.4001 9.75724 2.97018 11.1959 3.90509 12.5732C4.83916 13.9493 6.10386 15.2138 7.40361 16.2963C8.69988 17.3759 10.0061 18.2539 11.0005 18.8617C11.4971 19.1653 11.9119 19.3991 12.2041 19.5549C12.238 19.5729 12.27 19.5899 12.3001 19.6056C12.3302 19.5899 12.3622 19.5729 12.3961 19.5549C12.6882 19.3991 13.1031 19.1653 13.5997 18.8617C14.5941 18.2539 15.9003 17.3759 17.1966 16.2963C18.4963 15.2138 19.761 13.9493 20.6951 12.5732C21.63 11.1959 22.2001 9.75724 22.2001 8.306C22.2001 5.33136 19.9175 2.3 16.7353 2.3C14.8941 2.3 13.6945 3.20708 12.9842 4.038C12.8132 4.23803 12.5632 4.3532 12.3001 4.3532C12.0369 4.3532 11.787 4.23803 11.616 4.038C10.9057 3.20708 9.70608 2.3 7.8649 2.3Z" fill="#2D3131"/>
</svg>
