<svg width="51" height="38" viewBox="0 0 51 38" fill="none" xmlns="http://www.w3.org/2000/svg">
<path d="M22.75 13C23.0625 13 23.375 12.7656 23.375 12.375V11.125C23.375 10.8125 23.0625 10.5 22.75 10.5H4C3.60938 10.5 3.375 10.8125 3.375 11.125V12.375C3.375 12.7656 3.60938 13 4 13H22.75ZM50.25 28H48.375V19.5625C48.375 18.3125 47.8281 16.9844 46.8906 16.0469L40.3281 9.48438C39.3906 8.54688 38.1406 8 36.8125 8H33.375V4.17188C33.375 2.14062 31.5781 0.5 29.4688 0.5H9.70312C7.59375 0.5 5.875 2.14062 5.875 4.17188V5.5H1.5C1.10938 5.5 0.875 5.8125 0.875 6.125V7.375C0.875 7.76562 1.10938 8 1.5 8H20.25C20.5625 8 20.875 7.76562 20.875 7.375V6.125C20.875 5.8125 20.5625 5.5 20.25 5.5H8.375V4.17188C8.375 3.54688 8.92188 3 9.70312 3H29.4688C30.25 3 30.875 3.54688 30.875 4.17188V28H17.0469C15.9531 26.5156 14.1562 25.5 12.125 25.5C10.6406 25.5 9.39062 26.0469 8.375 26.8281V20.5H5.875V31.75C5.875 35.2656 8.60938 38 12.125 38C15.5625 38 18.375 35.2656 18.375 31.75C18.375 31.3594 18.2969 30.9688 18.2188 30.5H33.4531C33.375 30.9688 33.375 31.3594 33.375 31.75C33.375 35.2656 36.1094 38 39.625 38C43.0625 38 45.875 35.2656 45.875 31.75C45.875 31.3594 45.7969 30.9688 45.7188 30.5H50.25C50.5625 30.5 50.875 30.2656 50.875 29.875V28.625C50.875 28.3125 50.5625 28 50.25 28ZM12.125 35.5C10.0156 35.5 8.375 33.8594 8.375 31.75C8.375 29.7188 10.0156 28 12.125 28C14.1562 28 15.875 29.7188 15.875 31.75C15.875 33.8594 14.1562 35.5 12.125 35.5ZM33.375 10.5H36.8125C37.4375 10.5 38.0625 10.8125 38.5312 11.2812L45.0938 17.8438C45.1719 17.9219 45.1719 18 45.25 18.0781H33.375V10.5ZM39.625 35.5C37.5156 35.5 35.875 33.8594 35.875 31.75C35.875 29.7188 37.5156 28 39.625 28C41.6562 28 43.375 29.7188 43.375 31.75C43.375 33.8594 41.6562 35.5 39.625 35.5ZM45.875 28H44.5469C43.4531 26.5156 41.6562 25.5 39.625 25.5C37.5938 25.5 35.7969 26.5156 34.625 28H33.375V20.5H45.875V28ZM20.875 17.375V16.125C20.875 15.8125 20.5625 15.5 20.25 15.5H1.5C1.10938 15.5 0.875 15.8125 0.875 16.125V17.375C0.875 17.7656 1.10938 18 1.5 18H20.25C20.5625 18 20.875 17.7656 20.875 17.375Z" fill="#73B5A1"/>
</svg>
