<svg width="22" height="23" viewBox="0 0 22 23" fill="none" xmlns="http://www.w3.org/2000/svg">
<path fill-rule="evenodd" clip-rule="evenodd" d="M8.43206 3.02523C9.79903 1.65826 12.0153 1.65826 13.3823 3.02523C14.7493 4.39221 14.7493 6.60852 13.3823 7.9755C12.0153 9.34247 9.79903 9.34247 8.43206 7.9755C7.06508 6.60852 7.06508 4.39221 8.43206 3.02523ZM7.01784 1.61102C9.16587 -0.537007 12.6485 -0.537007 14.7965 1.61102C16.9446 3.75905 16.9446 7.24168 14.7965 9.38971C12.6485 11.5377 9.16587 11.5377 7.01784 9.38971C4.86981 7.24168 4.86981 3.75905 7.01784 1.61102ZM1.95529 22.2965C3.14529 18.4641 6.72055 15.6816 10.9426 15.6816C15.1648 15.6816 18.7399 18.4626 19.9298 22.2964C20.0935 22.8239 20.6539 23.1188 21.1813 22.9551C21.7088 22.7913 22.0037 22.231 21.8399 21.7036C20.3975 17.0564 16.0653 13.6816 10.9426 13.6816C5.81963 13.6816 1.48762 17.0583 0.0452471 21.7035C-0.118529 22.2309 0.176281 22.7912 0.703724 22.955C1.23117 23.1188 1.79151 22.824 1.95529 22.2965Z" fill="#2D3131"/>
</svg>
