<svg width="51" height="41" viewBox="0 0 51 41" fill="none" xmlns="http://www.w3.org/2000/svg">
<path d="M49.4531 22.9688C50.9375 21.5625 50.9375 19.1406 49.4531 17.6562L32.9688 1.17188C32.3438 0.546875 31.1719 0 30.3125 0H26.25L28.75 2.5H30.3125C30.5469 2.5 30.9375 2.73438 31.1719 2.89062L47.7344 19.4531C48.2031 19.9219 48.2031 20.7031 47.7344 21.25L31.7969 37.1875C31.25 37.6562 30.4688 37.6562 30 37.1875L29.8438 37.0312L28.125 38.8281L28.2031 38.9062C29.6875 40.3906 32.1094 40.3906 33.5156 38.9062L49.4531 22.9688ZM20.3125 2.5C20.5469 2.5 20.9375 2.73438 21.1719 2.89062L37.7344 19.4531C38.2031 19.9219 38.2031 20.7031 37.7344 21.25L21.7969 37.1875C21.25 37.6562 20.4688 37.6562 20 37.1875L3.4375 20.625C3.20312 20.3906 3.125 20.0781 3.125 19.7656V3.75C3.125 3.125 3.67188 2.5 4.375 2.5H20.3125ZM20.3125 0H4.375C2.26562 0 0.625 1.71875 0.625 3.75V19.7656C0.625 20.625 1.09375 21.7969 1.71875 22.4219L18.2031 38.9062C19.6875 40.3906 22.1094 40.3906 23.5156 38.9062L39.4531 22.9688C40.9375 21.5625 40.9375 19.1406 39.4531 17.6562L22.9688 1.17188C22.3438 0.546875 21.1719 0 20.3125 0ZM11.875 9.6875C12.7344 9.6875 13.4375 10.3906 13.4375 11.25C13.4375 12.1875 12.7344 12.8125 11.875 12.8125C10.9375 12.8125 10.3125 12.1875 10.3125 11.25C10.3125 10.3906 10.9375 9.6875 11.875 9.6875ZM11.875 7.5C9.76562 7.5 8.125 9.21875 8.125 11.25C8.125 13.3594 9.76562 15 11.875 15C13.9062 15 15.625 13.3594 15.625 11.25C15.625 9.21875 13.9062 7.5 11.875 7.5Z" fill="#73B5A1"/>
</svg>
