<svg width="36" height="40" viewBox="0 0 36 40" fill="none" xmlns="http://www.w3.org/2000/svg">
<path d="M25.625 27.5H25.2344C24.2969 27.5 23.3594 27.7344 22.4219 28.0469C21.25 28.4375 19.2969 28.8281 18.0469 28.8281C16.875 28.8281 14.9219 28.4375 13.75 28.0469C12.8125 27.7344 11.875 27.5781 10.9375 27.5781H10.625C5.07812 27.5781 0.625 32.0312 0.625 37.5C0.625 38.9062 1.71875 40 3.125 40H33.125C34.4531 40 35.625 38.9062 35.625 37.5C35.625 32.0312 31.0938 27.5 25.625 27.5ZM3.125 37.5C3.125 33.4375 6.48438 30.0781 10.625 30H10.9375C11.4844 30 12.1094 30.1562 12.8906 30.4688C14.2969 30.9375 16.6406 31.25 18.0469 31.25C19.5312 31.25 21.875 30.9375 23.2812 30.4688C24.0625 30.1562 24.6875 30 25.2344 30H25.625C29.6875 30.0781 33.0469 33.4375 33.125 37.5H3.125ZM4.375 17.5C5 17.5 5.625 16.9531 5.625 16.25V15C5.625 8.125 11.1719 2.5 18.125 2.5C25 2.5 30.625 8.125 30.625 15V16.25C30.5469 19.7656 27.8125 22.5 24.375 22.5H21.875C21.875 21.1719 20.7031 20 19.375 20H16.875C15.4688 20 14.375 21.1719 14.375 22.5C14.375 23.9062 15.4688 25 16.875 25H24.375C29.1406 25 33.0469 21.0938 33.125 16.25V15C33.125 6.79688 26.3281 0 18.125 0C9.84375 0 3.125 6.79688 3.125 15V16.25C3.125 16.9531 3.67188 17.5 4.375 17.5ZM18.125 7.5C22.2656 7.5 25.5469 10.8594 25.5469 15C25.5469 16.5625 24.6875 18.8281 23.6719 20H24.375C25.4688 20 26.875 19.2188 27.5 18.2812C27.8906 17.2656 28.125 16.1719 28.125 15C28.125 9.53125 23.5938 5 18.125 5C12.5781 5 8.125 9.53125 8.125 15C8.125 18.2031 9.60938 20.9375 11.875 22.8125C11.875 22.7344 11.875 22.6562 11.875 22.5C11.875 21.7969 12.1875 20.7031 12.5 20C11.4844 18.8281 10.5469 16.6406 10.5469 15C10.5469 10.8594 13.9062 7.5 18.0469 7.5C18.0469 7.5 18.0469 7.5 18.125 7.5Z" fill="#73B5A1"/>
</svg>
